<mxfile host="app.diagrams.net" agent="Mozilla/5.0 (Windows NT 10.0; Win64; x64) AppleWebKit/537.36 (KHTML, like Gecko) Chrome/128.0.0.0 Safari/537.36" version="24.7.14">
  <diagram name="Page-1" id="e7e014a7-5840-1c2e-5031-d8a46d1fe8dd">
    <mxGraphModel dx="1434" dy="780" grid="1" gridSize="10" guides="1" tooltips="1" connect="1" arrows="1" fold="1" page="1" pageScale="1" pageWidth="1169" pageHeight="826" background="none" math="0" shadow="0">
      <root>
        <mxCell id="0" />
        <mxCell id="1" parent="0" />
        <mxCell id="xS6zGey1r-a-HusKauBN-42" value="Совершение продажи" style="text;strokeColor=none;fillColor=none;html=1;fontSize=24;fontStyle=1;verticalAlign=middle;align=center;" vertex="1" parent="1">
          <mxGeometry x="110" y="40" width="100" height="40" as="geometry" />
        </mxCell>
        <mxCell id="xS6zGey1r-a-HusKauBN-46" value="" style="edgeStyle=orthogonalEdgeStyle;rounded=0;orthogonalLoop=1;jettySize=auto;html=1;" edge="1" parent="1" source="xS6zGey1r-a-HusKauBN-43" target="xS6zGey1r-a-HusKauBN-45">
          <mxGeometry relative="1" as="geometry" />
        </mxCell>
        <mxCell id="xS6zGey1r-a-HusKauBN-43" value="Данные о товарах&lt;br&gt;Данные о сумме в кассе" style="whiteSpace=wrap;html=1;fillColor=none;sketch=0;fillStyle=solid;pointerEvents=1;resizable=0;" vertex="1" parent="1">
          <mxGeometry x="100" y="130" width="120" height="60" as="geometry" />
        </mxCell>
        <mxCell id="xS6zGey1r-a-HusKauBN-54" value="" style="edgeStyle=orthogonalEdgeStyle;rounded=0;orthogonalLoop=1;jettySize=auto;html=1;" edge="1" parent="1" source="xS6zGey1r-a-HusKauBN-45" target="xS6zGey1r-a-HusKauBN-53">
          <mxGeometry relative="1" as="geometry" />
        </mxCell>
        <mxCell id="xS6zGey1r-a-HusKauBN-57" value="Да" style="edgeLabel;html=1;align=center;verticalAlign=middle;resizable=0;points=[];" vertex="1" connectable="0" parent="xS6zGey1r-a-HusKauBN-54">
          <mxGeometry x="-0.28" y="-3" relative="1" as="geometry">
            <mxPoint as="offset" />
          </mxGeometry>
        </mxCell>
        <mxCell id="xS6zGey1r-a-HusKauBN-63" value="" style="edgeStyle=orthogonalEdgeStyle;rounded=0;orthogonalLoop=1;jettySize=auto;html=1;" edge="1" parent="1" source="xS6zGey1r-a-HusKauBN-45" target="xS6zGey1r-a-HusKauBN-62">
          <mxGeometry relative="1" as="geometry" />
        </mxCell>
        <mxCell id="xS6zGey1r-a-HusKauBN-45" value="Клиенту нужен ещё один товар?" style="rhombus;whiteSpace=wrap;html=1;fillColor=none;sketch=0;fillStyle=solid;pointerEvents=1;resizable=0;" vertex="1" parent="1">
          <mxGeometry x="120" y="240" width="80" height="80" as="geometry" />
        </mxCell>
        <mxCell id="xS6zGey1r-a-HusKauBN-56" value="" style="edgeStyle=orthogonalEdgeStyle;rounded=0;orthogonalLoop=1;jettySize=auto;html=1;" edge="1" parent="1" source="xS6zGey1r-a-HusKauBN-53">
          <mxGeometry relative="1" as="geometry">
            <mxPoint x="160" y="523" as="targetPoint" />
          </mxGeometry>
        </mxCell>
        <mxCell id="xS6zGey1r-a-HusKauBN-58" value="Да" style="edgeLabel;html=1;align=center;verticalAlign=middle;resizable=0;points=[];" vertex="1" connectable="0" parent="xS6zGey1r-a-HusKauBN-56">
          <mxGeometry x="-0.0959" y="-3" relative="1" as="geometry">
            <mxPoint as="offset" />
          </mxGeometry>
        </mxCell>
        <mxCell id="xS6zGey1r-a-HusKauBN-59" style="edgeStyle=orthogonalEdgeStyle;rounded=0;orthogonalLoop=1;jettySize=auto;html=1;exitX=0;exitY=0.5;exitDx=0;exitDy=0;entryX=0.5;entryY=0;entryDx=0;entryDy=0;" edge="1" parent="1" source="xS6zGey1r-a-HusKauBN-53" target="xS6zGey1r-a-HusKauBN-45">
          <mxGeometry relative="1" as="geometry">
            <Array as="points">
              <mxPoint x="100" y="410" />
              <mxPoint x="100" y="220" />
              <mxPoint x="160" y="220" />
            </Array>
          </mxGeometry>
        </mxCell>
        <mxCell id="xS6zGey1r-a-HusKauBN-60" value="Нет" style="edgeLabel;html=1;align=center;verticalAlign=middle;resizable=0;points=[];" vertex="1" connectable="0" parent="xS6zGey1r-a-HusKauBN-59">
          <mxGeometry x="0.0706" y="1" relative="1" as="geometry">
            <mxPoint as="offset" />
          </mxGeometry>
        </mxCell>
        <mxCell id="xS6zGey1r-a-HusKauBN-53" value="Товар есть на складе?" style="rhombus;whiteSpace=wrap;html=1;fillColor=none;sketch=0;fillStyle=solid;pointerEvents=1;resizable=0;" vertex="1" parent="1">
          <mxGeometry x="120" y="370" width="80" height="80" as="geometry" />
        </mxCell>
        <mxCell id="xS6zGey1r-a-HusKauBN-61" style="edgeStyle=orthogonalEdgeStyle;rounded=0;orthogonalLoop=1;jettySize=auto;html=1;exitX=0;exitY=0.5;exitDx=0;exitDy=0;entryX=0.5;entryY=0;entryDx=0;entryDy=0;" edge="1" parent="1" source="xS6zGey1r-a-HusKauBN-73" target="xS6zGey1r-a-HusKauBN-45">
          <mxGeometry relative="1" as="geometry">
            <mxPoint x="40" y="550" as="sourcePoint" />
            <mxPoint x="80" y="210" as="targetPoint" />
            <Array as="points">
              <mxPoint x="80" y="550" />
              <mxPoint x="80" y="220" />
              <mxPoint x="160" y="220" />
            </Array>
          </mxGeometry>
        </mxCell>
        <mxCell id="xS6zGey1r-a-HusKauBN-69" value="" style="edgeStyle=orthogonalEdgeStyle;rounded=0;orthogonalLoop=1;jettySize=auto;html=1;" edge="1" parent="1" source="xS6zGey1r-a-HusKauBN-62" target="xS6zGey1r-a-HusKauBN-68">
          <mxGeometry relative="1" as="geometry" />
        </mxCell>
        <mxCell id="xS6zGey1r-a-HusKauBN-71" value="" style="edgeStyle=orthogonalEdgeStyle;rounded=0;orthogonalLoop=1;jettySize=auto;html=1;entryX=0.5;entryY=0;entryDx=0;entryDy=0;" edge="1" parent="1" source="xS6zGey1r-a-HusKauBN-62" target="xS6zGey1r-a-HusKauBN-72">
          <mxGeometry relative="1" as="geometry">
            <mxPoint x="320" y="400" as="targetPoint" />
          </mxGeometry>
        </mxCell>
        <mxCell id="xS6zGey1r-a-HusKauBN-62" value="Клиент постоянный?" style="rhombus;whiteSpace=wrap;html=1;fillColor=none;sketch=0;fillStyle=solid;pointerEvents=1;resizable=0;" vertex="1" parent="1">
          <mxGeometry x="280" y="240" width="80" height="80" as="geometry" />
        </mxCell>
        <mxCell id="xS6zGey1r-a-HusKauBN-75" value="" style="edgeStyle=orthogonalEdgeStyle;rounded=0;orthogonalLoop=1;jettySize=auto;html=1;" edge="1" parent="1" source="xS6zGey1r-a-HusKauBN-68" target="xS6zGey1r-a-HusKauBN-74">
          <mxGeometry relative="1" as="geometry" />
        </mxCell>
        <mxCell id="xS6zGey1r-a-HusKauBN-68" value="Данные о постоянных клиентах" style="whiteSpace=wrap;html=1;fillColor=none;sketch=0;fillStyle=solid;pointerEvents=1;resizable=0;" vertex="1" parent="1">
          <mxGeometry x="420" y="250" width="120" height="60" as="geometry" />
        </mxCell>
        <mxCell id="xS6zGey1r-a-HusKauBN-222" style="edgeStyle=orthogonalEdgeStyle;rounded=0;orthogonalLoop=1;jettySize=auto;html=1;exitX=0.5;exitY=1;exitDx=0;exitDy=0;entryX=0.5;entryY=0;entryDx=0;entryDy=0;" edge="1" parent="1" source="xS6zGey1r-a-HusKauBN-72" target="xS6zGey1r-a-HusKauBN-221">
          <mxGeometry relative="1" as="geometry" />
        </mxCell>
        <mxCell id="xS6zGey1r-a-HusKauBN-72" value="Оформить покупку" style="rounded=1;whiteSpace=wrap;html=1;" vertex="1" parent="1">
          <mxGeometry x="260" y="650" width="120" height="60" as="geometry" />
        </mxCell>
        <mxCell id="xS6zGey1r-a-HusKauBN-73" value="Добавить товар в заказ" style="rounded=1;whiteSpace=wrap;html=1;" vertex="1" parent="1">
          <mxGeometry x="100" y="520" width="120" height="60" as="geometry" />
        </mxCell>
        <mxCell id="xS6zGey1r-a-HusKauBN-77" style="edgeStyle=orthogonalEdgeStyle;rounded=0;orthogonalLoop=1;jettySize=auto;html=1;exitX=0.5;exitY=1;exitDx=0;exitDy=0;entryX=0.5;entryY=0;entryDx=0;entryDy=0;" edge="1" parent="1" source="xS6zGey1r-a-HusKauBN-74" target="xS6zGey1r-a-HusKauBN-76">
          <mxGeometry relative="1" as="geometry" />
        </mxCell>
        <mxCell id="xS6zGey1r-a-HusKauBN-78" value="Да" style="edgeLabel;html=1;align=center;verticalAlign=middle;resizable=0;points=[];" vertex="1" connectable="0" parent="xS6zGey1r-a-HusKauBN-77">
          <mxGeometry x="-0.05" relative="1" as="geometry">
            <mxPoint as="offset" />
          </mxGeometry>
        </mxCell>
        <mxCell id="xS6zGey1r-a-HusKauBN-80" value="" style="edgeStyle=orthogonalEdgeStyle;rounded=0;orthogonalLoop=1;jettySize=auto;html=1;" edge="1" parent="1" source="xS6zGey1r-a-HusKauBN-74" target="xS6zGey1r-a-HusKauBN-79">
          <mxGeometry relative="1" as="geometry" />
        </mxCell>
        <mxCell id="xS6zGey1r-a-HusKauBN-81" value="Нет" style="edgeLabel;html=1;align=center;verticalAlign=middle;resizable=0;points=[];" vertex="1" connectable="0" parent="xS6zGey1r-a-HusKauBN-80">
          <mxGeometry y="3" relative="1" as="geometry">
            <mxPoint as="offset" />
          </mxGeometry>
        </mxCell>
        <mxCell id="xS6zGey1r-a-HusKauBN-74" value="У клиента день рождения/круглая дата с начала авторизации?" style="rhombus;whiteSpace=wrap;html=1;fillColor=none;sketch=0;fillStyle=solid;pointerEvents=1;resizable=0;" vertex="1" parent="1">
          <mxGeometry x="640" y="240" width="80" height="80" as="geometry" />
        </mxCell>
        <mxCell id="xS6zGey1r-a-HusKauBN-82" style="edgeStyle=orthogonalEdgeStyle;rounded=0;orthogonalLoop=1;jettySize=auto;html=1;entryX=0;entryY=0.5;entryDx=0;entryDy=0;" edge="1" parent="1" source="xS6zGey1r-a-HusKauBN-76" target="xS6zGey1r-a-HusKauBN-79">
          <mxGeometry relative="1" as="geometry">
            <Array as="points">
              <mxPoint x="680" y="440" />
              <mxPoint x="820" y="440" />
              <mxPoint x="820" y="280" />
            </Array>
          </mxGeometry>
        </mxCell>
        <mxCell id="xS6zGey1r-a-HusKauBN-76" value="Оформить скидку" style="rounded=1;whiteSpace=wrap;html=1;" vertex="1" parent="1">
          <mxGeometry x="620" y="360" width="120" height="60" as="geometry" />
        </mxCell>
        <mxCell id="xS6zGey1r-a-HusKauBN-84" style="edgeStyle=orthogonalEdgeStyle;rounded=0;orthogonalLoop=1;jettySize=auto;html=1;entryX=0.5;entryY=0;entryDx=0;entryDy=0;" edge="1" parent="1" source="xS6zGey1r-a-HusKauBN-79" target="xS6zGey1r-a-HusKauBN-83">
          <mxGeometry relative="1" as="geometry" />
        </mxCell>
        <mxCell id="xS6zGey1r-a-HusKauBN-85" value="Да" style="edgeLabel;html=1;align=center;verticalAlign=middle;resizable=0;points=[];" vertex="1" connectable="0" parent="xS6zGey1r-a-HusKauBN-84">
          <mxGeometry x="-0.2" y="-1" relative="1" as="geometry">
            <mxPoint as="offset" />
          </mxGeometry>
        </mxCell>
        <mxCell id="xS6zGey1r-a-HusKauBN-89" value="" style="edgeStyle=orthogonalEdgeStyle;rounded=0;orthogonalLoop=1;jettySize=auto;html=1;entryX=0.5;entryY=0;entryDx=0;entryDy=0;" edge="1" parent="1" source="xS6zGey1r-a-HusKauBN-79" target="xS6zGey1r-a-HusKauBN-90">
          <mxGeometry relative="1" as="geometry">
            <mxPoint x="1010" y="280" as="targetPoint" />
          </mxGeometry>
        </mxCell>
        <mxCell id="xS6zGey1r-a-HusKauBN-94" value="Нет" style="edgeLabel;html=1;align=center;verticalAlign=middle;resizable=0;points=[];" vertex="1" connectable="0" parent="xS6zGey1r-a-HusKauBN-89">
          <mxGeometry x="-0.3514" y="3" relative="1" as="geometry">
            <mxPoint as="offset" />
          </mxGeometry>
        </mxCell>
        <mxCell id="xS6zGey1r-a-HusKauBN-79" value="Клиент хочет списать баллы?" style="rhombus;whiteSpace=wrap;html=1;fillColor=none;sketch=0;fillStyle=solid;pointerEvents=1;resizable=0;" vertex="1" parent="1">
          <mxGeometry x="870" y="240" width="80" height="80" as="geometry" />
        </mxCell>
        <mxCell id="xS6zGey1r-a-HusKauBN-87" value="" style="edgeStyle=orthogonalEdgeStyle;rounded=0;orthogonalLoop=1;jettySize=auto;html=1;" edge="1" parent="1" source="xS6zGey1r-a-HusKauBN-83" target="xS6zGey1r-a-HusKauBN-86">
          <mxGeometry relative="1" as="geometry" />
        </mxCell>
        <mxCell id="xS6zGey1r-a-HusKauBN-83" value="Списать баллы" style="rounded=1;whiteSpace=wrap;html=1;" vertex="1" parent="1">
          <mxGeometry x="850" y="360" width="120" height="60" as="geometry" />
        </mxCell>
        <mxCell id="xS6zGey1r-a-HusKauBN-93" style="edgeStyle=orthogonalEdgeStyle;rounded=0;orthogonalLoop=1;jettySize=auto;html=1;exitX=0.5;exitY=1;exitDx=0;exitDy=0;entryX=0.5;entryY=0;entryDx=0;entryDy=0;" edge="1" parent="1" source="xS6zGey1r-a-HusKauBN-86" target="xS6zGey1r-a-HusKauBN-90">
          <mxGeometry relative="1" as="geometry" />
        </mxCell>
        <mxCell id="xS6zGey1r-a-HusKauBN-86" value="Сделать скидку за баллы" style="rounded=1;whiteSpace=wrap;html=1;" vertex="1" parent="1">
          <mxGeometry x="850" y="460" width="120" height="60" as="geometry" />
        </mxCell>
        <mxCell id="xS6zGey1r-a-HusKauBN-95" style="edgeStyle=orthogonalEdgeStyle;rounded=0;orthogonalLoop=1;jettySize=auto;html=1;entryX=0.5;entryY=0;entryDx=0;entryDy=0;" edge="1" parent="1" source="xS6zGey1r-a-HusKauBN-90" target="xS6zGey1r-a-HusKauBN-72">
          <mxGeometry relative="1" as="geometry" />
        </mxCell>
        <mxCell id="xS6zGey1r-a-HusKauBN-90" value="Начислить баллы" style="rounded=1;whiteSpace=wrap;html=1;" vertex="1" parent="1">
          <mxGeometry x="1010" y="580" width="120" height="60" as="geometry" />
        </mxCell>
        <mxCell id="xS6zGey1r-a-HusKauBN-97" value="Добавление клиента в постоянные" style="text;strokeColor=none;fillColor=none;html=1;fontSize=24;fontStyle=1;verticalAlign=middle;align=center;" vertex="1" parent="1">
          <mxGeometry x="210" y="870" width="100" height="40" as="geometry" />
        </mxCell>
        <mxCell id="xS6zGey1r-a-HusKauBN-103" style="edgeStyle=orthogonalEdgeStyle;rounded=0;orthogonalLoop=1;jettySize=auto;html=1;exitX=0.5;exitY=1;exitDx=0;exitDy=0;entryX=0.5;entryY=0;entryDx=0;entryDy=0;" edge="1" parent="1" source="xS6zGey1r-a-HusKauBN-100" target="xS6zGey1r-a-HusKauBN-102">
          <mxGeometry relative="1" as="geometry" />
        </mxCell>
        <mxCell id="xS6zGey1r-a-HusKauBN-100" value="База данных клиентов" style="whiteSpace=wrap;html=1;fillColor=none;sketch=0;fillStyle=solid;pointerEvents=1;resizable=0;" vertex="1" parent="1">
          <mxGeometry x="200" y="1040" width="120" height="60" as="geometry" />
        </mxCell>
        <mxCell id="xS6zGey1r-a-HusKauBN-218" style="edgeStyle=orthogonalEdgeStyle;rounded=0;orthogonalLoop=1;jettySize=auto;html=1;exitX=0.5;exitY=1;exitDx=0;exitDy=0;entryX=0.5;entryY=0;entryDx=0;entryDy=0;" edge="1" parent="1" source="xS6zGey1r-a-HusKauBN-102" target="xS6zGey1r-a-HusKauBN-217">
          <mxGeometry relative="1" as="geometry" />
        </mxCell>
        <mxCell id="xS6zGey1r-a-HusKauBN-102" value="Создание нового клиента с заполнением данных" style="rounded=1;whiteSpace=wrap;html=1;" vertex="1" parent="1">
          <mxGeometry x="200" y="1160" width="120" height="60" as="geometry" />
        </mxCell>
        <mxCell id="xS6zGey1r-a-HusKauBN-107" value="Менеджмент сотрудников" style="text;strokeColor=none;fillColor=none;html=1;fontSize=24;fontStyle=1;verticalAlign=middle;align=center;" vertex="1" parent="1">
          <mxGeometry x="210" y="1420" width="100" height="40" as="geometry" />
        </mxCell>
        <mxCell id="xS6zGey1r-a-HusKauBN-131" value="" style="edgeStyle=orthogonalEdgeStyle;rounded=0;orthogonalLoop=1;jettySize=auto;html=1;" edge="1" parent="1" source="xS6zGey1r-a-HusKauBN-108" target="xS6zGey1r-a-HusKauBN-130">
          <mxGeometry relative="1" as="geometry" />
        </mxCell>
        <mxCell id="xS6zGey1r-a-HusKauBN-108" value="База данных сотрудников" style="whiteSpace=wrap;html=1;fillColor=none;sketch=0;fillStyle=solid;pointerEvents=1;resizable=0;" vertex="1" parent="1">
          <mxGeometry x="210" y="1520" width="120" height="60" as="geometry" />
        </mxCell>
        <mxCell id="xS6zGey1r-a-HusKauBN-113" style="edgeStyle=orthogonalEdgeStyle;rounded=0;orthogonalLoop=1;jettySize=auto;html=1;entryX=0.5;entryY=0;entryDx=0;entryDy=0;" edge="1" parent="1" source="xS6zGey1r-a-HusKauBN-110" target="xS6zGey1r-a-HusKauBN-211">
          <mxGeometry relative="1" as="geometry">
            <mxPoint x="140" y="2280" as="targetPoint" />
          </mxGeometry>
        </mxCell>
        <mxCell id="xS6zGey1r-a-HusKauBN-110" value="Добавление сотрудника с заполнением данных" style="rounded=1;whiteSpace=wrap;html=1;" vertex="1" parent="1">
          <mxGeometry x="80" y="1730" width="120" height="60" as="geometry" />
        </mxCell>
        <mxCell id="xS6zGey1r-a-HusKauBN-115" value="&lt;font style=&quot;font-size: 27px;&quot;&gt;Действия рядового сотрудника&lt;/font&gt;" style="text;strokeColor=none;fillColor=none;html=1;fontSize=24;fontStyle=1;verticalAlign=middle;align=center;" vertex="1" parent="1">
          <mxGeometry x="160" width="100" height="40" as="geometry" />
        </mxCell>
        <mxCell id="xS6zGey1r-a-HusKauBN-116" value="&lt;span style=&quot;font-size: 27px;&quot;&gt;Действия Гали&lt;/span&gt;" style="text;strokeColor=none;fillColor=none;html=1;fontSize=24;fontStyle=1;verticalAlign=middle;align=center;" vertex="1" parent="1">
          <mxGeometry x="130" y="1370" width="100" height="40" as="geometry" />
        </mxCell>
        <mxCell id="xS6zGey1r-a-HusKauBN-122" style="edgeStyle=orthogonalEdgeStyle;rounded=0;orthogonalLoop=1;jettySize=auto;html=1;exitX=0.5;exitY=1;exitDx=0;exitDy=0;entryX=0.5;entryY=0;entryDx=0;entryDy=0;" edge="1" parent="1" source="xS6zGey1r-a-HusKauBN-130" target="xS6zGey1r-a-HusKauBN-121">
          <mxGeometry relative="1" as="geometry">
            <mxPoint x="260" y="2100" as="sourcePoint" />
          </mxGeometry>
        </mxCell>
        <mxCell id="xS6zGey1r-a-HusKauBN-134" value="Изменить данные сотрудника" style="edgeLabel;html=1;align=center;verticalAlign=middle;resizable=0;points=[];" vertex="1" connectable="0" parent="xS6zGey1r-a-HusKauBN-122">
          <mxGeometry x="-0.2044" y="2" relative="1" as="geometry">
            <mxPoint as="offset" />
          </mxGeometry>
        </mxCell>
        <mxCell id="xS6zGey1r-a-HusKauBN-137" style="edgeStyle=orthogonalEdgeStyle;rounded=0;orthogonalLoop=1;jettySize=auto;html=1;" edge="1" parent="1" source="xS6zGey1r-a-HusKauBN-121" target="xS6zGey1r-a-HusKauBN-138">
          <mxGeometry relative="1" as="geometry">
            <mxPoint x="270" y="1840" as="targetPoint" />
          </mxGeometry>
        </mxCell>
        <mxCell id="xS6zGey1r-a-HusKauBN-121" value="Выбрать сотрудника по номеру" style="rounded=1;whiteSpace=wrap;html=1;" vertex="1" parent="1">
          <mxGeometry x="210" y="1740" width="120" height="60" as="geometry" />
        </mxCell>
        <mxCell id="xS6zGey1r-a-HusKauBN-126" value="" style="edgeStyle=orthogonalEdgeStyle;rounded=0;orthogonalLoop=1;jettySize=auto;html=1;" edge="1" parent="1" source="xS6zGey1r-a-HusKauBN-123" target="xS6zGey1r-a-HusKauBN-125">
          <mxGeometry relative="1" as="geometry" />
        </mxCell>
        <mxCell id="xS6zGey1r-a-HusKauBN-123" value="Выбрать графу для изменения" style="rounded=1;whiteSpace=wrap;html=1;" vertex="1" parent="1">
          <mxGeometry x="210" y="1970" width="120" height="60" as="geometry" />
        </mxCell>
        <mxCell id="xS6zGey1r-a-HusKauBN-212" style="edgeStyle=orthogonalEdgeStyle;rounded=0;orthogonalLoop=1;jettySize=auto;html=1;entryX=0.5;entryY=0;entryDx=0;entryDy=0;" edge="1" parent="1" source="xS6zGey1r-a-HusKauBN-125" target="xS6zGey1r-a-HusKauBN-211">
          <mxGeometry relative="1" as="geometry">
            <Array as="points">
              <mxPoint x="270" y="2240" />
              <mxPoint x="140" y="2240" />
            </Array>
          </mxGeometry>
        </mxCell>
        <mxCell id="xS6zGey1r-a-HusKauBN-125" value="Изменить данные" style="whiteSpace=wrap;html=1;rounded=1;" vertex="1" parent="1">
          <mxGeometry x="210" y="2160" width="120" height="60" as="geometry" />
        </mxCell>
        <mxCell id="xS6zGey1r-a-HusKauBN-132" style="edgeStyle=orthogonalEdgeStyle;rounded=0;orthogonalLoop=1;jettySize=auto;html=1;exitX=0;exitY=0.5;exitDx=0;exitDy=0;entryX=0.5;entryY=0;entryDx=0;entryDy=0;" edge="1" parent="1" source="xS6zGey1r-a-HusKauBN-130" target="xS6zGey1r-a-HusKauBN-110">
          <mxGeometry relative="1" as="geometry" />
        </mxCell>
        <mxCell id="xS6zGey1r-a-HusKauBN-133" value="Добавить сотрудника" style="edgeLabel;html=1;align=center;verticalAlign=middle;resizable=0;points=[];" vertex="1" connectable="0" parent="xS6zGey1r-a-HusKauBN-132">
          <mxGeometry x="-0.4125" y="-1" relative="1" as="geometry">
            <mxPoint as="offset" />
          </mxGeometry>
        </mxCell>
        <mxCell id="xS6zGey1r-a-HusKauBN-130" value="Что нужно сделать?" style="rhombus;whiteSpace=wrap;html=1;fillColor=none;sketch=0;fillStyle=solid;pointerEvents=1;resizable=0;" vertex="1" parent="1">
          <mxGeometry x="230" y="1610" width="80" height="80" as="geometry" />
        </mxCell>
        <mxCell id="xS6zGey1r-a-HusKauBN-139" style="edgeStyle=orthogonalEdgeStyle;rounded=0;orthogonalLoop=1;jettySize=auto;html=1;exitX=0.5;exitY=1;exitDx=0;exitDy=0;entryX=0.5;entryY=0;entryDx=0;entryDy=0;" edge="1" parent="1" source="xS6zGey1r-a-HusKauBN-138" target="xS6zGey1r-a-HusKauBN-123">
          <mxGeometry relative="1" as="geometry" />
        </mxCell>
        <mxCell id="xS6zGey1r-a-HusKauBN-140" value="Изменить персональные данные" style="edgeLabel;html=1;align=center;verticalAlign=middle;resizable=0;points=[];" vertex="1" connectable="0" parent="xS6zGey1r-a-HusKauBN-139">
          <mxGeometry x="-0.4" y="-1" relative="1" as="geometry">
            <mxPoint as="offset" />
          </mxGeometry>
        </mxCell>
        <mxCell id="xS6zGey1r-a-HusKauBN-141" style="edgeStyle=orthogonalEdgeStyle;rounded=0;orthogonalLoop=1;jettySize=auto;html=1;" edge="1" parent="1" source="xS6zGey1r-a-HusKauBN-138" target="xS6zGey1r-a-HusKauBN-144">
          <mxGeometry relative="1" as="geometry">
            <mxPoint x="420" y="1970" as="targetPoint" />
          </mxGeometry>
        </mxCell>
        <mxCell id="xS6zGey1r-a-HusKauBN-142" value="Повысить сотрудника" style="edgeLabel;html=1;align=center;verticalAlign=middle;resizable=0;points=[];" vertex="1" connectable="0" parent="xS6zGey1r-a-HusKauBN-141">
          <mxGeometry x="-0.4856" y="-3" relative="1" as="geometry">
            <mxPoint x="41" y="-13" as="offset" />
          </mxGeometry>
        </mxCell>
        <mxCell id="xS6zGey1r-a-HusKauBN-138" value="Что нужно сделать?" style="rhombus;whiteSpace=wrap;html=1;" vertex="1" parent="1">
          <mxGeometry x="230" y="1840" width="80" height="80" as="geometry" />
        </mxCell>
        <mxCell id="xS6zGey1r-a-HusKauBN-213" style="edgeStyle=orthogonalEdgeStyle;rounded=0;orthogonalLoop=1;jettySize=auto;html=1;" edge="1" parent="1" source="xS6zGey1r-a-HusKauBN-144">
          <mxGeometry relative="1" as="geometry">
            <mxPoint x="140" y="2330" as="targetPoint" />
            <Array as="points">
              <mxPoint x="420" y="2240" />
              <mxPoint x="141" y="2240" />
            </Array>
          </mxGeometry>
        </mxCell>
        <mxCell id="xS6zGey1r-a-HusKauBN-144" value="Повысить сотрудника до Гали" style="rounded=1;whiteSpace=wrap;html=1;" vertex="1" parent="1">
          <mxGeometry x="360" y="1970" width="120" height="60" as="geometry" />
        </mxCell>
        <mxCell id="xS6zGey1r-a-HusKauBN-146" value="Изменение суммы в кассе" style="text;strokeColor=none;fillColor=none;html=1;fontSize=24;fontStyle=1;verticalAlign=middle;align=center;" vertex="1" parent="1">
          <mxGeometry x="190" y="2370" width="100" height="40" as="geometry" />
        </mxCell>
        <mxCell id="xS6zGey1r-a-HusKauBN-151" value="" style="edgeStyle=orthogonalEdgeStyle;rounded=0;orthogonalLoop=1;jettySize=auto;html=1;" edge="1" parent="1" source="xS6zGey1r-a-HusKauBN-148" target="xS6zGey1r-a-HusKauBN-150">
          <mxGeometry relative="1" as="geometry" />
        </mxCell>
        <mxCell id="xS6zGey1r-a-HusKauBN-148" value="Данные о сумме в кассе" style="whiteSpace=wrap;html=1;fillColor=none;sketch=0;fillStyle=solid;pointerEvents=1;resizable=0;" vertex="1" parent="1">
          <mxGeometry x="170" y="2500" width="120" height="60" as="geometry" />
        </mxCell>
        <mxCell id="xS6zGey1r-a-HusKauBN-153" value="" style="edgeStyle=orthogonalEdgeStyle;rounded=0;orthogonalLoop=1;jettySize=auto;html=1;" edge="1" parent="1" source="xS6zGey1r-a-HusKauBN-150">
          <mxGeometry relative="1" as="geometry">
            <mxPoint x="230" y="2810" as="targetPoint" />
          </mxGeometry>
        </mxCell>
        <mxCell id="xS6zGey1r-a-HusKauBN-150" value="Изменить сумму" style="rounded=1;whiteSpace=wrap;html=1;fillColor=none;sketch=0;fillStyle=solid;pointerEvents=1;resizable=0;" vertex="1" parent="1">
          <mxGeometry x="170" y="2640" width="120" height="60" as="geometry" />
        </mxCell>
        <mxCell id="xS6zGey1r-a-HusKauBN-154" value="Отмена покупки" style="text;strokeColor=none;fillColor=none;html=1;fontSize=24;fontStyle=1;verticalAlign=middle;align=center;" vertex="1" parent="1">
          <mxGeometry x="180" y="2870" width="100" height="40" as="geometry" />
        </mxCell>
        <mxCell id="xS6zGey1r-a-HusKauBN-159" value="" style="edgeStyle=orthogonalEdgeStyle;rounded=0;orthogonalLoop=1;jettySize=auto;html=1;" edge="1" parent="1" source="xS6zGey1r-a-HusKauBN-156" target="xS6zGey1r-a-HusKauBN-158">
          <mxGeometry relative="1" as="geometry" />
        </mxCell>
        <mxCell id="xS6zGey1r-a-HusKauBN-156" value="Данные о покупках&lt;br&gt;Данные о сумме в кассе" style="whiteSpace=wrap;html=1;fillColor=none;sketch=0;fillStyle=solid;pointerEvents=1;resizable=0;" vertex="1" parent="1">
          <mxGeometry x="170" y="2980" width="120" height="60" as="geometry" />
        </mxCell>
        <mxCell id="xS6zGey1r-a-HusKauBN-161" style="edgeStyle=orthogonalEdgeStyle;rounded=0;orthogonalLoop=1;jettySize=auto;html=1;exitX=0.5;exitY=1;exitDx=0;exitDy=0;entryX=0.5;entryY=0;entryDx=0;entryDy=0;" edge="1" parent="1" source="xS6zGey1r-a-HusKauBN-158" target="xS6zGey1r-a-HusKauBN-160">
          <mxGeometry relative="1" as="geometry" />
        </mxCell>
        <mxCell id="xS6zGey1r-a-HusKauBN-158" value="Поиск заказа по номеру" style="rounded=1;whiteSpace=wrap;html=1;fillColor=none;sketch=0;fillStyle=solid;pointerEvents=1;resizable=0;" vertex="1" parent="1">
          <mxGeometry x="170" y="3070" width="120" height="60" as="geometry" />
        </mxCell>
        <mxCell id="xS6zGey1r-a-HusKauBN-163" value="" style="edgeStyle=orthogonalEdgeStyle;rounded=0;orthogonalLoop=1;jettySize=auto;html=1;" edge="1" parent="1" source="xS6zGey1r-a-HusKauBN-160" target="xS6zGey1r-a-HusKauBN-200">
          <mxGeometry relative="1" as="geometry">
            <mxPoint x="350" y="3190" as="targetPoint" />
          </mxGeometry>
        </mxCell>
        <mxCell id="xS6zGey1r-a-HusKauBN-164" value="Да" style="edgeLabel;html=1;align=center;verticalAlign=middle;resizable=0;points=[];" vertex="1" connectable="0" parent="xS6zGey1r-a-HusKauBN-163">
          <mxGeometry x="0.2" relative="1" as="geometry">
            <mxPoint as="offset" />
          </mxGeometry>
        </mxCell>
        <mxCell id="xS6zGey1r-a-HusKauBN-166" style="edgeStyle=orthogonalEdgeStyle;rounded=0;orthogonalLoop=1;jettySize=auto;html=1;exitX=0.5;exitY=1;exitDx=0;exitDy=0;entryX=0.5;entryY=0;entryDx=0;entryDy=0;" edge="1" parent="1" source="xS6zGey1r-a-HusKauBN-160" target="xS6zGey1r-a-HusKauBN-165">
          <mxGeometry relative="1" as="geometry" />
        </mxCell>
        <mxCell id="xS6zGey1r-a-HusKauBN-167" value="Нет" style="edgeLabel;html=1;align=center;verticalAlign=middle;resizable=0;points=[];" vertex="1" connectable="0" parent="xS6zGey1r-a-HusKauBN-166">
          <mxGeometry x="-0.25" relative="1" as="geometry">
            <mxPoint as="offset" />
          </mxGeometry>
        </mxCell>
        <mxCell id="xS6zGey1r-a-HusKauBN-160" value="Покупка была совершена авторизованным ползователем?" style="rhombus;whiteSpace=wrap;html=1;" vertex="1" parent="1">
          <mxGeometry x="190" y="3150" width="80" height="80" as="geometry" />
        </mxCell>
        <mxCell id="xS6zGey1r-a-HusKauBN-168" style="edgeStyle=orthogonalEdgeStyle;rounded=0;orthogonalLoop=1;jettySize=auto;html=1;entryX=0.5;entryY=0;entryDx=0;entryDy=0;" edge="1" parent="1" source="xS6zGey1r-a-HusKauBN-162" target="xS6zGey1r-a-HusKauBN-165">
          <mxGeometry relative="1" as="geometry">
            <Array as="points">
              <mxPoint x="620" y="3190" />
              <mxPoint x="620" y="3310" />
              <mxPoint x="230" y="3310" />
            </Array>
          </mxGeometry>
        </mxCell>
        <mxCell id="xS6zGey1r-a-HusKauBN-162" value="Списать + вернуть баллы за покупку" style="rounded=1;whiteSpace=wrap;html=1;" vertex="1" parent="1">
          <mxGeometry x="480" y="3160" width="120" height="60" as="geometry" />
        </mxCell>
        <mxCell id="xS6zGey1r-a-HusKauBN-170" value="" style="edgeStyle=orthogonalEdgeStyle;rounded=0;orthogonalLoop=1;jettySize=auto;html=1;" edge="1" parent="1" source="xS6zGey1r-a-HusKauBN-165" target="xS6zGey1r-a-HusKauBN-169">
          <mxGeometry relative="1" as="geometry" />
        </mxCell>
        <mxCell id="xS6zGey1r-a-HusKauBN-165" value="Добавить товары из покупки" style="rounded=1;whiteSpace=wrap;html=1;" vertex="1" parent="1">
          <mxGeometry x="170" y="3340" width="120" height="60" as="geometry" />
        </mxCell>
        <mxCell id="xS6zGey1r-a-HusKauBN-207" style="edgeStyle=orthogonalEdgeStyle;rounded=0;orthogonalLoop=1;jettySize=auto;html=1;entryX=0.5;entryY=0;entryDx=0;entryDy=0;" edge="1" parent="1" source="xS6zGey1r-a-HusKauBN-169" target="xS6zGey1r-a-HusKauBN-202">
          <mxGeometry relative="1" as="geometry" />
        </mxCell>
        <mxCell id="xS6zGey1r-a-HusKauBN-169" value="Вычесть сумму из кассы" style="whiteSpace=wrap;html=1;rounded=1;" vertex="1" parent="1">
          <mxGeometry x="170" y="3430" width="120" height="60" as="geometry" />
        </mxCell>
        <mxCell id="xS6zGey1r-a-HusKauBN-173" value="Менеджмент товаров" style="text;strokeColor=none;fillColor=none;html=1;fontSize=24;fontStyle=1;verticalAlign=middle;align=center;" vertex="1" parent="1">
          <mxGeometry x="180" y="3620" width="100" height="40" as="geometry" />
        </mxCell>
        <mxCell id="xS6zGey1r-a-HusKauBN-180" value="" style="edgeStyle=orthogonalEdgeStyle;rounded=0;orthogonalLoop=1;jettySize=auto;html=1;" edge="1" parent="1" source="xS6zGey1r-a-HusKauBN-178" target="xS6zGey1r-a-HusKauBN-179">
          <mxGeometry relative="1" as="geometry" />
        </mxCell>
        <mxCell id="xS6zGey1r-a-HusKauBN-178" value="Данные о товарах" style="rounded=0;whiteSpace=wrap;html=1;" vertex="1" parent="1">
          <mxGeometry x="160" y="3730" width="120" height="60" as="geometry" />
        </mxCell>
        <mxCell id="xS6zGey1r-a-HusKauBN-182" style="edgeStyle=orthogonalEdgeStyle;rounded=0;orthogonalLoop=1;jettySize=auto;html=1;entryX=0.5;entryY=0;entryDx=0;entryDy=0;" edge="1" parent="1" source="xS6zGey1r-a-HusKauBN-179" target="xS6zGey1r-a-HusKauBN-181">
          <mxGeometry relative="1" as="geometry">
            <mxPoint x="100" y="3920" as="targetPoint" />
          </mxGeometry>
        </mxCell>
        <mxCell id="xS6zGey1r-a-HusKauBN-183" value="Добавить товар" style="edgeLabel;html=1;align=center;verticalAlign=middle;resizable=0;points=[];" vertex="1" connectable="0" parent="xS6zGey1r-a-HusKauBN-182">
          <mxGeometry x="-0.0857" y="-1" relative="1" as="geometry">
            <mxPoint as="offset" />
          </mxGeometry>
        </mxCell>
        <mxCell id="xS6zGey1r-a-HusKauBN-187" style="edgeStyle=orthogonalEdgeStyle;rounded=0;orthogonalLoop=1;jettySize=auto;html=1;entryX=0.5;entryY=0;entryDx=0;entryDy=0;" edge="1" parent="1" source="xS6zGey1r-a-HusKauBN-179" target="xS6zGey1r-a-HusKauBN-186">
          <mxGeometry relative="1" as="geometry" />
        </mxCell>
        <mxCell id="xS6zGey1r-a-HusKauBN-188" value="Изменить данные товара" style="edgeLabel;html=1;align=center;verticalAlign=middle;resizable=0;points=[];" vertex="1" connectable="0" parent="xS6zGey1r-a-HusKauBN-187">
          <mxGeometry x="-0.6286" y="3" relative="1" as="geometry">
            <mxPoint as="offset" />
          </mxGeometry>
        </mxCell>
        <mxCell id="xS6zGey1r-a-HusKauBN-191" style="edgeStyle=orthogonalEdgeStyle;rounded=0;orthogonalLoop=1;jettySize=auto;html=1;" edge="1" parent="1" source="xS6zGey1r-a-HusKauBN-179" target="xS6zGey1r-a-HusKauBN-192">
          <mxGeometry relative="1" as="geometry">
            <mxPoint x="420" y="3940" as="targetPoint" />
          </mxGeometry>
        </mxCell>
        <mxCell id="xS6zGey1r-a-HusKauBN-193" value="Списать товар" style="edgeLabel;html=1;align=center;verticalAlign=middle;resizable=0;points=[];" vertex="1" connectable="0" parent="xS6zGey1r-a-HusKauBN-191">
          <mxGeometry x="-0.1217" y="-3" relative="1" as="geometry">
            <mxPoint as="offset" />
          </mxGeometry>
        </mxCell>
        <mxCell id="xS6zGey1r-a-HusKauBN-179" value="Что сделать?" style="rhombus;whiteSpace=wrap;html=1;rounded=0;" vertex="1" parent="1">
          <mxGeometry x="180" y="3820" width="80" height="80" as="geometry" />
        </mxCell>
        <mxCell id="xS6zGey1r-a-HusKauBN-185" value="" style="edgeStyle=orthogonalEdgeStyle;rounded=0;orthogonalLoop=1;jettySize=auto;html=1;" edge="1" parent="1" source="xS6zGey1r-a-HusKauBN-181" target="xS6zGey1r-a-HusKauBN-184">
          <mxGeometry relative="1" as="geometry" />
        </mxCell>
        <mxCell id="xS6zGey1r-a-HusKauBN-181" value="Ввести данные нового товара" style="rounded=1;whiteSpace=wrap;html=1;" vertex="1" parent="1">
          <mxGeometry x="50" y="3930" width="120" height="60" as="geometry" />
        </mxCell>
        <mxCell id="xS6zGey1r-a-HusKauBN-197" value="" style="edgeStyle=orthogonalEdgeStyle;rounded=0;orthogonalLoop=1;jettySize=auto;html=1;" edge="1" parent="1" source="xS6zGey1r-a-HusKauBN-184">
          <mxGeometry relative="1" as="geometry">
            <mxPoint x="110" y="4190" as="targetPoint" />
          </mxGeometry>
        </mxCell>
        <mxCell id="xS6zGey1r-a-HusKauBN-184" value="Добавить товар" style="whiteSpace=wrap;html=1;rounded=1;" vertex="1" parent="1">
          <mxGeometry x="50" y="4020" width="120" height="60" as="geometry" />
        </mxCell>
        <mxCell id="xS6zGey1r-a-HusKauBN-190" value="" style="edgeStyle=orthogonalEdgeStyle;rounded=0;orthogonalLoop=1;jettySize=auto;html=1;" edge="1" parent="1" source="xS6zGey1r-a-HusKauBN-186" target="xS6zGey1r-a-HusKauBN-189">
          <mxGeometry relative="1" as="geometry" />
        </mxCell>
        <mxCell id="xS6zGey1r-a-HusKauBN-186" value="Ввести ID товара" style="rounded=1;whiteSpace=wrap;html=1;" vertex="1" parent="1">
          <mxGeometry x="200" y="3930" width="120" height="60" as="geometry" />
        </mxCell>
        <mxCell id="xS6zGey1r-a-HusKauBN-189" value="Изменить данные товара" style="whiteSpace=wrap;html=1;rounded=1;" vertex="1" parent="1">
          <mxGeometry x="200" y="4020" width="120" height="60" as="geometry" />
        </mxCell>
        <mxCell id="xS6zGey1r-a-HusKauBN-195" value="" style="edgeStyle=orthogonalEdgeStyle;rounded=0;orthogonalLoop=1;jettySize=auto;html=1;" edge="1" parent="1" source="xS6zGey1r-a-HusKauBN-192" target="xS6zGey1r-a-HusKauBN-194">
          <mxGeometry relative="1" as="geometry" />
        </mxCell>
        <mxCell id="xS6zGey1r-a-HusKauBN-192" value="Ввести ID товара" style="rounded=1;whiteSpace=wrap;html=1;" vertex="1" parent="1">
          <mxGeometry x="360" y="3930" width="120" height="60" as="geometry" />
        </mxCell>
        <mxCell id="xS6zGey1r-a-HusKauBN-194" value="Удалить товар из базы данных" style="whiteSpace=wrap;html=1;rounded=1;" vertex="1" parent="1">
          <mxGeometry x="360" y="4020" width="120" height="60" as="geometry" />
        </mxCell>
        <mxCell id="xS6zGey1r-a-HusKauBN-198" style="edgeStyle=orthogonalEdgeStyle;rounded=0;orthogonalLoop=1;jettySize=auto;html=1;exitX=0.5;exitY=1;exitDx=0;exitDy=0;entryX=0.5;entryY=0.1;entryDx=0;entryDy=0;entryPerimeter=0;" edge="1" parent="1" source="xS6zGey1r-a-HusKauBN-189">
          <mxGeometry relative="1" as="geometry">
            <mxPoint x="110" y="4190" as="targetPoint" />
          </mxGeometry>
        </mxCell>
        <mxCell id="xS6zGey1r-a-HusKauBN-199" style="edgeStyle=orthogonalEdgeStyle;rounded=0;orthogonalLoop=1;jettySize=auto;html=1;exitX=0.5;exitY=1;exitDx=0;exitDy=0;entryX=0.55;entryY=0;entryDx=0;entryDy=0;entryPerimeter=0;" edge="1" parent="1" source="xS6zGey1r-a-HusKauBN-194">
          <mxGeometry relative="1" as="geometry">
            <mxPoint x="110" y="4190" as="targetPoint" />
          </mxGeometry>
        </mxCell>
        <mxCell id="xS6zGey1r-a-HusKauBN-201" style="edgeStyle=orthogonalEdgeStyle;rounded=0;orthogonalLoop=1;jettySize=auto;html=1;exitX=1;exitY=0.5;exitDx=0;exitDy=0;entryX=0;entryY=0.5;entryDx=0;entryDy=0;" edge="1" parent="1" source="xS6zGey1r-a-HusKauBN-200" target="xS6zGey1r-a-HusKauBN-162">
          <mxGeometry relative="1" as="geometry" />
        </mxCell>
        <mxCell id="xS6zGey1r-a-HusKauBN-200" value="Данные о клиентах" style="rounded=0;whiteSpace=wrap;html=1;" vertex="1" parent="1">
          <mxGeometry x="340" y="3160" width="120" height="60" as="geometry" />
        </mxCell>
        <mxCell id="xS6zGey1r-a-HusKauBN-202" value="" style="ellipse;html=1;shape=endState;fillColor=#000000;strokeColor=#ff0000;" vertex="1" parent="1">
          <mxGeometry x="215" y="3540" width="30" height="30" as="geometry" />
        </mxCell>
        <mxCell id="xS6zGey1r-a-HusKauBN-203" value="" style="ellipse;html=1;shape=endState;fillColor=#000000;strokeColor=#ff0000;" vertex="1" parent="1">
          <mxGeometry x="215" y="2810" width="30" height="30" as="geometry" />
        </mxCell>
        <mxCell id="xS6zGey1r-a-HusKauBN-206" style="edgeStyle=orthogonalEdgeStyle;rounded=0;orthogonalLoop=1;jettySize=auto;html=1;entryX=0.5;entryY=0;entryDx=0;entryDy=0;" edge="1" parent="1" source="xS6zGey1r-a-HusKauBN-204" target="xS6zGey1r-a-HusKauBN-156">
          <mxGeometry relative="1" as="geometry" />
        </mxCell>
        <mxCell id="xS6zGey1r-a-HusKauBN-204" value="" style="ellipse;html=1;shape=startState;fillColor=#000000;strokeColor=#ff0000;" vertex="1" parent="1">
          <mxGeometry x="215" y="2910" width="30" height="30" as="geometry" />
        </mxCell>
        <mxCell id="xS6zGey1r-a-HusKauBN-209" value="" style="ellipse;html=1;shape=startState;fillColor=#000000;strokeColor=#ff0000;" vertex="1" parent="1">
          <mxGeometry x="215" y="2400" width="30" height="30" as="geometry" />
        </mxCell>
        <mxCell id="xS6zGey1r-a-HusKauBN-210" value="" style="edgeStyle=orthogonalEdgeStyle;html=1;verticalAlign=bottom;endArrow=open;endSize=8;strokeColor=#ff0000;rounded=0;entryX=0.5;entryY=0;entryDx=0;entryDy=0;" edge="1" source="xS6zGey1r-a-HusKauBN-209" parent="1" target="xS6zGey1r-a-HusKauBN-148">
          <mxGeometry relative="1" as="geometry">
            <mxPoint x="230" y="2490" as="targetPoint" />
          </mxGeometry>
        </mxCell>
        <mxCell id="xS6zGey1r-a-HusKauBN-211" value="" style="ellipse;html=1;shape=endState;fillColor=#000000;strokeColor=#ff0000;" vertex="1" parent="1">
          <mxGeometry x="125" y="2330" width="30" height="30" as="geometry" />
        </mxCell>
        <mxCell id="xS6zGey1r-a-HusKauBN-216" style="edgeStyle=orthogonalEdgeStyle;rounded=0;orthogonalLoop=1;jettySize=auto;html=1;" edge="1" parent="1" source="xS6zGey1r-a-HusKauBN-214" target="xS6zGey1r-a-HusKauBN-108">
          <mxGeometry relative="1" as="geometry" />
        </mxCell>
        <mxCell id="xS6zGey1r-a-HusKauBN-214" value="" style="ellipse;html=1;shape=startState;fillColor=#000000;strokeColor=#ff0000;" vertex="1" parent="1">
          <mxGeometry x="255" y="1460" width="30" height="30" as="geometry" />
        </mxCell>
        <mxCell id="xS6zGey1r-a-HusKauBN-217" value="" style="ellipse;html=1;shape=endState;fillColor=#000000;strokeColor=#ff0000;" vertex="1" parent="1">
          <mxGeometry x="245" y="1290" width="30" height="30" as="geometry" />
        </mxCell>
        <mxCell id="xS6zGey1r-a-HusKauBN-219" value="" style="ellipse;html=1;shape=startState;fillColor=#000000;strokeColor=#ff0000;" vertex="1" parent="1">
          <mxGeometry x="245" y="930" width="30" height="30" as="geometry" />
        </mxCell>
        <mxCell id="xS6zGey1r-a-HusKauBN-220" value="" style="edgeStyle=orthogonalEdgeStyle;html=1;verticalAlign=bottom;endArrow=open;endSize=8;strokeColor=#ff0000;rounded=0;entryX=0.5;entryY=0;entryDx=0;entryDy=0;" edge="1" source="xS6zGey1r-a-HusKauBN-219" parent="1" target="xS6zGey1r-a-HusKauBN-100">
          <mxGeometry relative="1" as="geometry">
            <mxPoint x="260" y="1020" as="targetPoint" />
          </mxGeometry>
        </mxCell>
        <mxCell id="xS6zGey1r-a-HusKauBN-221" value="" style="ellipse;html=1;shape=endState;fillColor=#000000;strokeColor=#ff0000;" vertex="1" parent="1">
          <mxGeometry x="305" y="750" width="30" height="30" as="geometry" />
        </mxCell>
        <mxCell id="xS6zGey1r-a-HusKauBN-223" value="" style="ellipse;html=1;shape=startState;fillColor=#000000;strokeColor=#ff0000;" vertex="1" parent="1">
          <mxGeometry x="145" y="70" width="30" height="30" as="geometry" />
        </mxCell>
        <mxCell id="xS6zGey1r-a-HusKauBN-224" value="" style="edgeStyle=orthogonalEdgeStyle;html=1;verticalAlign=bottom;endArrow=open;endSize=8;strokeColor=#ff0000;rounded=0;entryX=0.5;entryY=0;entryDx=0;entryDy=0;" edge="1" source="xS6zGey1r-a-HusKauBN-223" parent="1" target="xS6zGey1r-a-HusKauBN-43">
          <mxGeometry relative="1" as="geometry">
            <mxPoint x="160" y="160" as="targetPoint" />
          </mxGeometry>
        </mxCell>
        <mxCell id="xS6zGey1r-a-HusKauBN-225" value="" style="ellipse;html=1;shape=startState;fillColor=#000000;strokeColor=#ff0000;" vertex="1" parent="1">
          <mxGeometry x="205" y="3660" width="30" height="30" as="geometry" />
        </mxCell>
        <mxCell id="xS6zGey1r-a-HusKauBN-226" value="" style="edgeStyle=orthogonalEdgeStyle;html=1;verticalAlign=bottom;endArrow=open;endSize=8;strokeColor=#ff0000;rounded=0;entryX=0.5;entryY=0;entryDx=0;entryDy=0;" edge="1" source="xS6zGey1r-a-HusKauBN-225" parent="1" target="xS6zGey1r-a-HusKauBN-178">
          <mxGeometry relative="1" as="geometry">
            <mxPoint x="260" y="3710" as="targetPoint" />
          </mxGeometry>
        </mxCell>
        <mxCell id="xS6zGey1r-a-HusKauBN-227" value="" style="ellipse;html=1;shape=endState;fillColor=#000000;strokeColor=#ff0000;" vertex="1" parent="1">
          <mxGeometry x="95" y="4190" width="30" height="30" as="geometry" />
        </mxCell>
      </root>
    </mxGraphModel>
  </diagram>
</mxfile>
